#!OML:ASF E:\Style4\Style4.ASF
:FULLY-SPECIFIED
:DEGREES
2686
root 0.175572 17.2505 -0.129509 -9.07216 -1.13457 5.07737
lowerback 3.61573 2.51634 -1.29522
upperback 3.07658 3.33094 -0.919455
thorax 1.11415 1.65569 -0.303968
lowerneck 4.49668 -3.75334 -7.59192
upperneck 9.18952 -5.53958 5.07912
head 2.58301 -2.90373 2.94546
rclavicle 3.66633e-014 -8.94531e-015
rhumerus 11.1303 9.51195 -64.714
rradius 114.844
rwrist -19.5773
rhand -32.7116 37.164
rfingers 7.12502
rthumb -5.9358 7.26715
lclavicle 3.66633e-014 -8.94531e-015
lhumerus 5.13181 -15.2285 64.4163
lradius 116.93
lwrist 18.875
lhand -21.7137 19.549
lfingers 7.12502
lthumb 4.68521 49.4772
rfemur -3.05621 1.42105 12.4317
rtibia 40.8533
rfoot -26.6868 -12.0027
rtoes -13.6365
lfemur 0.511586 2.03585 -24.6753
ltibia 34.783
lfoot -25.3448 7.16033
ltoes -17.6938
2687
root 0.173023 17.2645 -0.136182 -8.93109 -1.13539 5.07054
lowerback 3.64173 2.53326 -1.28046
upperback 3.05814 3.35292 -0.919045
thorax 1.08141 1.6671 -0.314152
lowerneck 4.53302 -3.79918 -7.63188
upperneck 9.00554 -5.60804 5.1998
head 2.52578 -2.93588 2.99445
rclavicle 2.64756e-014 -8.74653e-015
rhumerus 11.3695 9.57928 -64.6316
rradius 114.681
rwrist -19.1863
rhand -32.7834 37.1593
rfingers 7.12502
rthumb -6.00513 7.26437
lclavicle 2.64756e-014 -8.74653e-015
lhumerus 4.90348 -15.4909 64.1786
lradius 116.66
lwrist 19.4592
lhand -20.8764 19.5446
lfingers 7.12502
lthumb 5.49373 49.4534
rfemur -3.13255 1.39485 12.4468
rtibia 40.6281
rfoot -26.5162 -12.0335
rtoes -13.9099
lfemur 0.422817 1.95633 -24.6694
ltibia 34.5624
lfoot -25.2271 7.14111
ltoes -16.6899
2688
root 0.17069 17.2823 -0.141281 -8.76112 -1.11747 5.18232
lowerback 3.67842 2.53425 -1.40251
upperback 2.99954 3.3494 -0.957944
thorax 0.996208 1.66415 -0.28948
lowerneck 4.60185 -3.79816 -7.50946
upperneck 8.75859 -5.59972 5.16943
head 2.42311 -2.92732 2.96275
rclavicle -1.99033e-014 1.11319e-014
rhumerus 11.567 9.66367 -64.6681
rradius 114.462
rwrist -18.8464
rhand -32.7395 37.2071
rfingers 7.12502
rthumb -5.96269 7.31097
lclavicle -1.99033e-014 1.11319e-014
lhumerus 4.43888 -15.9469 63.9967
lradius 116.403
lwrist 19.6001
lhand -20.5072 19.7251
lfingers 7.12502
lthumb 5.85017 49.6243
rfemur -3.22167 1.36263 12.3149
rtibia 40.4102
rfoot -26.3677 -11.9906
rtoes -13.4986
lfemur 0.327065 1.8954 -24.7997
ltibia 34.3174
lfoot -25.0433 7.17317
ltoes -15.9816
2689
root 0.169046 17.2962 -0.148467 -8.59093 -1.12064 5.20472
lowerback 3.78421 2.51262 -1.43984
upperback 2.915 3.31537 -0.959454
thorax 0.848475 1.64737 -0.276862
lowerneck 4.6365 -3.79935 -7.36491
upperneck 8.49659 -5.58701 5.0752
head 2.31824 -2.91663 2.90452
rclavicle -2.79665e-014 1.27222e-014
rhumerus 11.7641 9.8493 -64.658
rradius 114.289
rwrist -18.6261
rhand -32.8245 37.2123
rfingers 7.12502
rthumb -6.04481 7.31854
lclavicle -2.79665e-014 1.27222e-014
lhumerus 3.80454 -16.556 63.8625
lradius 116.109
lwrist 19.8151
lhand -20.5602 19.8432
lfingers 7.12502
lthumb 5.79898 49.7439
rfemur -3.31429 1.36984 12.2965
rtibia 40.1979
rfoot -26.1955 -12.0407
rtoes -13.4222
lfemur 0.240522 1.83699 -24.8347
ltibia 34.0742
lfoot -24.9214 7.21225
ltoes -16.0459
2690
root 0.165263 17.3088 -0.159241 -8.38066 -1.12401 5.16468
lowerback 3.81947 2.49978 -1.44131
upperback 2.86677 3.29622 -0.919965
thorax 0.776899 1.63779 -0.238185
lowerneck 4.58421 -3.82828 -7.17465
upperneck 8.24656 -5.60212 4.93558
head 2.23178 -2.91819 2.82041
rclavicle -1.3008e-014 9.54166e-015
rhumerus 12.0427 10.0276 -64.5857
rradius 114.19
rwrist -18.5098
rhand -32.8701 37.3148
rfingers 7.12502
rthumb -6.08876 7.4223
lclavicle -1.3008e-014 9.54166e-015
lhumerus 3.23896 -17.0706 63.7401
lradius 115.994
lwrist 20.7874
lhand -20.1006 19.9858
lfingers 7.12502
lthumb 6.24266 49.8738
rfemur -3.47383 1.40664 12.378
rtibia 39.998
rfoot -26.107 -12.0541
rtoes -13.3606
lfemur 0.11352 1.77906 -24.7981
ltibia 33.8187
lfoot -24.7707 7.37442
ltoes -16.721
2691
root 0.160479 17.3202 -0.171107 -8.14303 -1.12734 5.1219
lowerback 3.80416 2.53387 -1.41915
upperback 2.82886 3.34175 -0.876833
thorax 0.74484 1.66071 -0.20826
lowerneck 4.48496 -3.88605 -7.11198
upperneck 8.02547 -5.66463 4.91659
head 2.17677 -2.94497 2.80003
rclavicle -8.00729e-015 6.75868e-015
rhumerus 12.2626 10.1091 -64.4492
rradius 114.152
rwrist -18.4171
rhand -32.9177 37.4604
rfingers 7.12502
rthumb -6.1348 7.56925
lclavicle -8.00729e-015 6.75868e-015
lhumerus 2.74994 -17.7219 63.6898
lradius 115.834
lwrist 21.5659
lhand -19.601 20.1619
lfingers 7.12502
lthumb 6.72504 50.0351
rfemur -3.68987 1.43563 12.4628
rtibia 39.8262
rfoot -26.0265 -12.0882
rtoes -13.4844
lfemur -0.00378607 1.73742 -24.7499
ltibia 33.5374
lfoot -24.6428 7.38593
ltoes -16.8496
2692
root 0.15588 17.3314 -0.181315 -7.89889 -1.11815 5.05004
lowerback 3.79075 2.55579 -1.3495
upperback 2.76046 3.37193 -0.844933
thorax 0.68382 1.67692 -0.216704
lowerneck 4.45739 -3.93396 -7.10222
upperneck 7.75286 -5.72095 4.93456
head 2.09518 -2.97029 2.80395
rclavicle -3.15384e-014 2.22639e-014
rhumerus 12.3955 10.2063 -64.4019
rradius 114.198
rwrist -18.4591
rhand -32.915 37.2494
rfingers 7.12502
rthumb -6.13214 7.3581
lclavicle -3.15384e-014 2.22639e-014
lhumerus 2.25834 -18.5255 63.6035
lradius 115.461
lwrist 21.8298
lhand -19.4749 20.2782
lfingers 7.12502
lthumb 6.84673 50.1475
rfemur -3.91269 1.45207 12.5731
rtibia 39.6617
rfoot -25.894 -12.1975
rtoes -13.6911
lfemur -0.109108 1.66168 -24.6746
ltibia 33.2266
lfoot -24.5011 7.30502
ltoes -16.5131
2693
root 0.152506 17.3435 -0.190287 -7.66787 -1.08968 5.04518
lowerback 3.80962 2.54036 -1.37154
upperback 2.67834 3.34878 -0.818427
thorax 0.586222 1.66537 -0.179966
lowerneck 4.41808 -3.97182 -7.12971
upperneck 7.45131 -5.76271 4.93764
head 2.00622 -2.98937 2.80992
rclavicle -3.31846e-014 6.36111e-015
rhumerus 12.5466 10.4118 -64.3998
rradius 114.247
rwrist -18.7298
rhand -32.8803 37.176
rfingers 7.12502
rthumb -6.09861 7.28379
lclavicle -3.31846e-014 6.36111e-015
lhumerus 1.55562 -19.3105 63.5256
lradius 115.098
lwrist 21.972
lhand -19.303 20.2562
lfingers 7.12502
lthumb 7.01267 50.12
rfemur -4.10078 1.43537 12.5895
rtibia 39.4862
rfoot -25.7643 -12.2317
rtoes -13.6036
lfemur -0.188225 1.55505 -24.6808
ltibia 32.8657
lfoot -24.3271 7.22328
ltoes -15.8705
